<svg xmlns="http://www.w3.org/2000/svg" viewBox="0 0 1001.1 344.04"><defs><style>.cls-1{fill:#fff;}</style></defs><g id="Energy"><path class="cls-1" d="M299.60377,190.00593c-10.75342-.94494-21.74414-1.5141-32.69922-1.5141-11.04052,0-21.94629.56916-32.69873,1.51233a45.24983,45.24983,0,0,0-41.30127,44.98767v107h19.5v-107a25.98387,25.98387,0,0,1,24.27539-25.77069c9.94239-.69165,20.02-1.22931,30.22461-1.22931s20.28223.53766,30.22364,1.22919a25.98419,25.98419,0,0,1,24.27636,25.77081v107h19.5v-107A45.182,45.182,0,0,0,299.60377,190.00593Zm189.92676-.26361c-13.33545-.70831-26.80176-1.25049-40.39551-1.25049s-27.061.54059-40.39551,1.25153A45.4647,45.4647,0,0,0,365.635,234.99183v62a45.44916,45.44916,0,0,0,43.103,45.23938c13.33643.72321,26.80322,1.26062,40.397,1.26062s27.05908-.54193,40.39746-1.26086A45.45094,45.45094,0,0,0,532.635,296.99183v-3.5h-19.5v3.5a25.8646,25.8646,0,0,1-24.40332,25.70343c-13.06445.77588-26.27148,1.29657-39.59668,1.29657s-26.52978-.52179-39.59668-1.29931A25.86026,25.86026,0,0,1,385.135,296.99183v-62a25.86305,25.86305,0,0,1,24.40332-25.70117c13.06739-.77624,26.27149-1.29883,39.59668-1.29883s26.5293.5224,39.59668,1.29877A25.86363,25.86363,0,0,1,513.135,234.99183v21h-80.5v20h100v-41A45.46752,45.46752,0,0,0,489.53053,189.74232Zm-365.085,0c-13.33545-.70831-26.80176-1.25049-40.39551-1.25049s-27.061.54059-40.39551,1.25153A45.46469,45.46469,0,0,0,.55,234.99183v62a45.44916,45.44916,0,0,0,43.103,45.23938c13.33642.72321,26.80322,1.26062,40.397,1.26062s27.05908-.54193,40.39746-1.26086A45.45094,45.45094,0,0,0,167.55,296.99183v-3.5h-19.5v3.5a25.8646,25.8646,0,0,1-24.40332,25.70343c-13.06445.77588-26.27148,1.29657-39.59668,1.29657s-26.52979-.52179-39.59668-1.29931A25.86026,25.86026,0,0,1,20.05,296.99183v-62a25.86305,25.86305,0,0,1,24.40332-25.70117c13.06738-.77624,26.27148-1.29883,39.59668-1.29883s26.5293.5224,39.59668,1.29877A25.86363,25.86363,0,0,1,148.05,234.99183v21H67.55v20h100v-41A45.46752,45.46752,0,0,0,124.44551,189.74232Zm657.587.01038c-13.33838-.71894-26.80371-1.26087-40.39746-1.26087s-27.06054.53742-40.397,1.26062a45.44916,45.44916,0,0,0-43.103,45.23938v62a45.46471,45.46471,0,0,0,43.10449,45.24848c13.33448.71093,26.80176,1.25152,40.39551,1.25152s27.06006-.54217,40.39551-1.25049A45.46751,45.46751,0,0,0,825.135,296.99183v-41h-100v20h80.5v21a25.86364,25.86364,0,0,1-24.40332,25.70124c-13.06738.77636-26.27148,1.29876-39.59668,1.29876s-26.52929-.52258-39.59668-1.29883A25.863,25.863,0,0,1,677.635,296.99183v-62a25.86025,25.86025,0,0,1,24.40332-25.70068c13.0669-.77753,26.27149-1.29932,39.59668-1.29932s26.53223.52069,39.59668,1.29657A25.86462,25.86462,0,0,1,805.635,234.99183v3.5h19.5v-3.5A45.45093,45.45093,0,0,0,782.03248,189.7527ZM560.135,234.99183v107h19.5v-107c0-13.67267,11.226-25.5,24.7724-25.5H644.135V189.98414s-29.6831.02-40.40191.02C582.48817,190.00416,560.135,208.42335,560.135,234.99183Zm440.415-44.99991H976.1335L909.88643,277.906a44.80015,44.80015,0,0,0-9.0669,27.08593v37h19.5v-37a25.384,25.384,0,0,1,5.14551-15.358Zm-147.73389,0H827.36055l69.45556,82.77381,12.04395-15.983Z"/></g><g id="SIEMENS"><path class="cls-1" d="M264.16621,90.25569h59.28168V65.1302H264.16621V30.741H332.2707V3.19465H223.16621V155.492H334.02607V126.39729H264.16621Zm191.105,10.25-38.31891-97.311h-55.1557V155.492h29.97223V47.66188l43.80408,109.376h26.3692l44.66357-109.376V155.492h40.33393V3.19465H494.551ZM69.49342,60.66047Q50.13469,51.94529,45.82881,49.25416q-5.16724-3.33317-5.165-8.602,0-14.10132,25.62061-14.09131,18.19546,0,39.40332,8.46924V6.097Q77.173.54523,62.1042.54817q-27.33618,0-44.34229,11.72308Q.55439,24.10133.55,46.6927q0,17.5393,11.81842,29.043,9.11865,8.71948,39.18988,21.08148,16.75635,6.88925,20.83551,10.76373a11.778,11.778,0,0,1,3.97748,9.03217q0,14.417-27.291,14.41992-19.76586,0-45.44433-8.082v30.07715a207.29443,207.29443,0,0,0,47.23437,5.541q27.76173,0,45.19831-10.53521,21.51626-13.00919,21.521-37.76068,0-17.2207-10.97809-28.084Q97.36552,73.03611,69.49342,60.66047ZM141.613,155.492h42.53949V3.19465H141.613ZM626.965,90.25569h59.28033V65.1302H626.965V30.741h68.09869V3.19465H585.96107V155.492h110.8692V126.39729H626.965Zm362.60449-8.06641q-9.32656-9.15317-37.00488-21.52881-19.683-8.81625-23.77832-11.40631-5.15471-3.33317-5.1474-8.602,0-14.10132,25.50293-14.09131,18.2914,0,39.50775,8.46924V6.097l-3.76068-.65284Q960.4626.5406,945.0793.54817q-27.33847,0-44.34381,11.72308Q883.509,24.10133,883.52559,46.59016q0,17.74218,11.80658,29.14551,9.20223,8.825,39.19921,21.08148,16.85605,6.88925,20.94538,10.76373a11.97131,11.97131,0,0,1,3.85449,9.03217q0,14.417-27.28223,14.41992-19.998,0-45.45214-8.082v30.07715a207.19687,207.19687,0,0,0,47.24615,5.541q27.75723,0,45.30072-10.53521,21.40713-13.00919,21.40625-37.76068Q1000.55,93.05257,989.56947,82.18928Zm-163.13672,22.957L774.1252,3.19465H724.82148V155.492h29.97559V52.16877L808.49336,155.492h47.90332V3.19465H826.43275Z"/></g></svg>